<svg xmlns="http://www.w3.org/2000/svg" width="800" height="480" viewBox="0 0 800 480">
  <title>
    Background
  </title>
  <defs>
    <linearGradient id="a" x1="50%" x2="50%" y1="4.985%" y2="90.835%">
      <stop stop-color="#242150" offset="0%"/>
      <stop stop-color="#572250" offset="100%"/>
    </linearGradient>
    <filter id="b" width="200%" height="200%" x="-50%" y="-50%" filterUnits="objectBoundingBox">
      <feGaussianBlur stdDeviation="50" in="SourceGraphic"/>
    </filter>
  </defs>
  <g fill="none" fill-rule="evenodd" transform="translate(-15)">
    <path fill="url(#a)" d="M15 0h800v480H15z"/>
    <path fill="#FFF" d="M231.037 187.02c-.376.86-.593 1.812-.593 2.85 0 4.974-8.528 58.455-8.528 63.677 0 5.222-2.756 12.755 0 12.755s7.93 1.36 12.386-5.207c4.456-6.567 19.333-32.602 20.92-32.602 1.586 0-8.254 30.93-.465 32.602 5.013 1.075 12.66-4.197 17.93-8.74 1.043 5.633 5.332 8.942 15.033 8.942 14.128 0 24.352-14.452 24.352-14.452s.455-4.24-6.397 0c-6.85 4.24-4.632 4.722-16.916 6.6-6.372.974-7.396-3.055-7.396-8.084 0-.38.01-.775.03-1.184 3.518.083 13.794-3.223 16.258-4.485 2.904-1.485 2.262-7.362.495-12.334-1.004-2.827-3.55-3.36-5.56-3.295-.202-.426-.827-.685-2.02-.685-4.36 0-14.788 8.454-17.303 19.05-2.502 3.876-6.33 8.495-8.643 8.495-3.66 0 8.87-28.51-3.34-31.605-12.21-3.096-25.346 24.492-26.978 25.928-1.633 1.436 8.872-52.546 8.872-58.053 0-.782-.01-1.45-.035-2.02 25.748-3.7 47.55-5.51 51.72-6.29 4.697-.882 11.553-5.196 4.266-5.196-7.287 0-75.975 4.588-96.635 8.926-20.66 4.338-28.795 7.222-28.795 7.222s-4.794 3.24-1.594 7.9c2.18 3.175 15.854-.912 33.795-5.335-2.08 10.966-5.684 35.028-5.684 40.567 0 6.803-1.397 27.54 0 29.41 1.398 1.872 7.762 2.774 7.762 2.774s2.98-20.038 4.8-26.668c1.818-6.63 5.895-42.05 5.895-47.662 0-.476-.055-.93-.156-1.365 4.082-.885 8.28-1.717 12.527-2.432zm51.308 51.25c.78-2.87 2.046-5.664 3.896-7.556 2.036-.294 6.57-1.285 7.662-1.285 1.282 0-1.812 4.687-5.313 7.192-1.982 1.42-4.395 1.684-6.245 1.647zm335.168 1.065c-4.085 5.435-10.81 13.574-14.704 12.04-5.868-2.313 0-25.522 0-26.292 0-.77-5.22 1.287-5.22 1.287s-11.703 23.22-12.785 24.16c-1.08.938-2.234 1.036-2.234-.94 0-1.975 1.482-14.995 4.99-20.05 3.505-5.053 15.25-4.457 15.25-4.457s-1.205-3.07-5.22-3.07c-4.013 0-14.922 1.94-17.324 7.528-1.73 4.028-2.82 9.514-3.293 13.46-3.704 4.822-9.72 12.33-11.288 12.33-2.308 0 3.43-22.72-5.807-23.818-9.237-1.1-19.418 15.745-20.664 15.745-1.247 0 10.49-18.613-2.342-19.854-9.12-.882-17.666 18.81-18.436 18.924-.77.115.22-10.187 1.55-12.5 1.33-2.315.392-9.77-2.32-9.77-2.713 0-5.463 2.148-6.52 3.346-.353.4-.963 2.32-1.645 4.868l-.02.007c-1.946.487-8.763 5.295-12.788 8.218.017-7.293-.475-15.577-.475-16.48 0-1.523.984-1.413.984-3.13 0-1.72-3.57-2.956-3.57-2.956s-1.228.43-2.322 1.008c-1.087-.68-2.62-.514-4.527 2.568-4.03 6.518-18.284 29.722-30.568 31.6-6.372.973-7.396-3.056-7.396-8.085 0-.783.045-1.603.137-2.44 2.943.66 7.606 1.354 11.713.402 6.61-1.534 6.974-8.1 5.203-15.2-1.036-4.153-3.954-4.64-6.2-4.33-.334-.265-.87-.417-1.65-.417-4.477 0-15.355 8.917-17.49 19.912-.17.884-.312 1.743-.418 2.575-3.055 3.338-6.662 6.66-8.916 6.66-4.528 0-2.092-13.36-1.046-17.778 1.046-4.418 3.322-9.668-.942-9.668-1.195 0-2.316.345-3.31.84.136-.49.21-.795.21-.795s-2.515-.4-4.693 1.685c-2.178 2.084-12.76 24.367-15.31 24.367-2.548 0 2.3-20.328 3.288-22.22.988-1.894-1.367-5.918-3.562-5.918-2.194 0-5.734.063-8.076 4.024-2.343 3.96-10.46 30.538 1.613 32.473 8.013 1.286 14.656-10.198 18.806-18.422-1.464 7.404-1.43 15.714 5.85 16.328 6.178.522 11.754-2.645 15.955-6.19.68 6.307 4.874 10.05 15.195 10.05 9.586 0 23.66-18.16 31.718-29.84.483 3.993 1.515 12.14-.49 13.387-2.493 1.55-11.807 12.133-11.807 15.212 0 3.08 7.746 6.36 15.24 3.077 7.493-3.283 3.797-8.01 5.788-11.4.406-.686.67-2.16.836-4.087 3.11-1.963 8.327-5.582 11.247-7.627-.755 3.372-1.397 6.576-1.655 8.322-.683 4.614 1.04 12.867 6.33 12.867 5.288 0 12.692-6.315 13.59-9.352.9-3.037 8.358-14.06 8.358-14.06s-7.757 21.927 1.104 20.592c8.86-1.335 18.017-16.853 18.017-16.853s-4.127 18.155 6.43 20.55c7.068 1.6 13.702-5.794 17.32-10.862.708 2.49 2.393 4.87 6.33 5.395 6.263.834 12.92-17.525 12.92-18.87 0-1.347-1.27 10.278-1.27 13.968 0 3.69 3.96 7.202 7.632 7.202 3.404 0 8.7-3.79 13.073-7.503-.09 1.998-.985 6.106.313 6.8 1.365.728 2.286.034 4.036 1.11 1.75 1.078 5.806.685 5.806-1.153 0-1.837 10.637-21.856 11.924-21.856 1.286 0 .005 13.614.005 16.112 0 2.497-1.746 9.133 6.072 9.133 7.817 0 16.833-9.54 20.348-14.39 3.515-4.848 6.062-11.645 3.686-11.645-2.376 0-13.88 19-16.815 19-2.934 0-.727-8.64-.727-13.425 0-4.786 1-10.945-4.376-10.945s-11.592-.795-13.98 5.075c-2.39 5.87-4.826 8.38-4.826 8.38s1.695-10.1 2.5-12.85c.806-2.75-.1-5.783-1.955-4.82-1.857.96-7.548 1.357-8.272 2.877-.358.752-1.275 5.76-2.11 10.858zm-167.53-1.48c.998-2.973 2.68-5.71 5.19-7.343.162-.106.324-.216.485-.33 1.917-.696 4.145-1.542 5.008-1.542 1.64 0 1.057 4.76-2.73 7.45-2.355 1.675-5.62 1.862-7.954 1.764zm-117.397 20.14c-.034 4.693-.074 10.626.158 12.73.308 2.802-2.21.978-2.21.488s-1.93-.95-1.93-.01-1.96-.83-2.137-1.838c-.178-1.006.574 3.137.574 3.137s-2.377-1.818-2.377-2.477c0-.66.438 2.295.22 2.386-.22.092-1.64.778-3.05.778-1.408 0-2.194 1.313-2.942-4.47-.747-5.78.992-31.774 2.705-42.774 1.714-11 4.694-30.848 4.694-30.848s1.162-4.395 6.38-4.395c5.22 0 7.144.412 7.144 3.393 0 .23-.043.754-.122 1.527 6.72-1.983 22.39-4.81 22.39 11.987 0 9.188-5.712 15.213-11.783 19.02 8.152 2.03 16.235 6.217 16.784 14.823 1.127 17.68-24.097 24.528-24.097 24.528l2.12-3.17-3.364.78-.524-1.976-6.52-1.763-2.114-1.855zm.002-.233c.01-1.468.02-2.804.02-3.85 0-1.722 1.1-10.778 2.442-21.35 6.583-.07 22.774.843 22.098 11.564-.796 12.616-21.958 13.566-24.56 13.636zm6.19-54.4c-.676 5.427-1.602 12.597-2.532 19.836 5.27-.53 16.953-3.11 18.177-15.59.888-9.065-12.67-5.2-15.645-4.247zm40.058 69.115s-12.046-15.462-6.023-49.905 16.696-45.202 19.013-45.202 4.003-1.21 5.055-1.21c1.054 0 4.014-1.67 5.27 1.535 1.254 3.205-1.263 24.125-5.794 33.013-4.53 8.887-11.715 26.177-11.715 26.177l1.054-14.313s.21 1.56 6.837-18.004c6.63-19.564 4.177-21.49 4.002-21.49-.176 0-4.76 8.977-6.125 14.146-1.366 5.17-6.842 29.062-5.766 47.863 1.077 18.8 5.65 27.668 5.65 27.668s-.825-.85-2.158-.85-1.37.744-3.24.744c-1.874 0-3.21-.177-3.91-.175-.698.002-2.146.002-2.146.002zm109.207-20.88s-4.382 3.645-4.382 5.483c0 1.84 1.692 2.238 2.684 1.626.993-.612 2.185-2.575 2.185-3.385 0-.81-.487-3.724-.487-3.724z" opacity=".05"/>
    <ellipse cx="420.5" cy="534" fill="#860058" opacity=".323" filter="url(#b)" rx="369.5" ry="265"/>
    <g opacity=".35">
      <path fill="#FFF" d="M595.31 311.053c-.702.14-27.137-2.786-20.13 20.315 4.346 14.32 19.217 9.85 25.783 11.686 15.057 4.208 20.807 17.734 20.81 17.962.003.14 5.865 9.937 5.865 1.72 0-8.567-5.05-24.375-26.82-28.97-1.69-.357-13.725-1.066-15.02-5.28-3.884-12.628 10.458-13.718 10.733-13.773l-1.22-3.66zM359.414 47.053c-.704.14-27.14-2.786-20.13 20.315 4.344 14.32 26.988 7.963 33.554 9.798 15.057 4.208 18.902 29.787 18.902 21.57 0-8.567-5.05-24.375-26.82-28.97-1.69-.357-13.725-1.066-15.02-5.28-3.884-12.628 9.514-17.433 9.514-17.433z" opacity=".078"/>
      <path fill="#FFF" d="M659.32 23c-.703.14-24.016 1.842-17.008 24.943 4.345 14.32 24.396.677 30.963 2.512 15.057 4.207 27.53-9.345 27.53-17.562 0-8.567-8.587 12.135-30.356 7.54-1.693-.357-16.226 8.842-17.522 4.628-3.883-12.627 7.337-18.345 7.612-18.4L659.32 23zM80.77 55.69c.715-.065 24.078.678 19.523-23.03-2.824-14.695-24.192-3.222-30.53-5.733-14.535-5.76-28.356 6.416-29.215 14.587-.895 8.52 4.2-15.7 25.37-8.853 1.645.533 26.51-4.325 27.36 0 2.54 12.966-12.508 23.03-12.508 23.03z" opacity=".06"/>
      <path fill="#FFF" d="M137.616 34.66s14.643-24.552 25.94-14.046c11.296 10.506 3.492 25.828 9.07 30.53 5.578 4.705 21.125 5.136 21.125 5.136s-19.313 9.54-28.067 0c-8.754-9.54-2.25-13.95-8.97-21.62-6.718-7.667-19.097 0-19.097 0zM502 182.66s14.643-24.552 25.94-14.046c11.296 10.506 3.492 25.828 9.07 30.53 5.578 4.705 21.125 5.136 21.125 5.136s-19.314 9.54-28.068 0c-8.754-9.54-2.25-13.95-8.97-21.62-6.718-7.667-19.097 0-19.097 0zM234 83.66s14.643-24.552 25.94-14.046c11.296 10.506 4.056 30.963 9.634 35.666 5.578 4.703 20.56 0 20.56 0s-19.313 9.54-28.067 0c-8.754-9.54-2.25-13.95-8.97-21.62-6.718-7.667-19.097 0-19.097 0z" opacity=".053"/>
      <path fill="#D8D8D8" d="M644.337 318.29c9.715 0 36.367-4.66 36.367-17.26 0-12.597 8.165-19.03 8.165-19.03s10.13 1.814.98 24.505c-9.146 22.692-55.227 11.784-45.513 11.784z" opacity=".066"/>
      <path fill="#D8D8D8" d="M638.227 298.656s-23.11 12.03-34.584 2.887c-11.474-9.143-11.574-15.63 0-23.566 11.575-7.938 16.517-2.426 10.09 2.964-6.426 5.392-5.21 17.978 3.037 17.847 8.248-.13 21.457-.13 21.457-.13zM684.227 64.656s-23.11 12.03-34.584 2.887c-11.474-9.143-11.574-15.63 0-23.566 11.575-7.938 16.517-2.426 10.09 2.964-6.426 5.392-5.21 17.978 3.037 17.847 8.248-.13 21.457-.13 21.457-.13z" opacity=".089"/>
      <path fill="#D8D8D8" d="M492.63 307.525s-10.663-11.808.375-22.99c11.038-11.183 38.676 2.054 48.98.332 10.303-1.723 1.406 5.962 1.406 5.962s-36.504-9.43-41.046-1.445c-4.542 7.985-9.715 18.14-9.715 18.14zM788.63 120.525s-10.663-11.808.375-22.99c11.038-11.183 38.676 2.054 48.98.332 10.303-1.723 1.406 5.962 1.406 5.962s-36.504-9.43-41.046-1.445c-4.542 7.985-9.715 18.14-9.715 18.14z" opacity=".08"/>
      <path fill="#D8D8D8" d="M285 51.62s11.396-14.33 19.53-11.163c8.132 3.168 4.218 14.643 12.84 12.903 8.62-1.74-3.255 5.64-6.298 5.64s-2.672-3.55-8.545-7.937c-5.873-4.39-17.527.556-17.527.556zM559.453 330.62s-11.397-14.33-19.53-11.163c-8.132 3.168-4.218 14.643-12.84 12.903-8.62-1.74 3.254 5.64 6.297 5.64 3.043 0 2.672-3.55 8.545-7.937 5.873-4.39 17.528.556 17.528.556z" opacity=".07"/>
      <path fill="#D8D8D8" d="M360 22.055s6.213-13.37 16.72-10.703c10.51 2.668-.75 27.512 9.337 27.512 10.086 0 3.445 5.174-2.946 5.174-6.39 0-.772-22.98-7.628-22.48-6.855.497-12.697 6.454-12.697 6.454L360 22.055zM767.62 345.332c10.51 2.668 1.513 33.053 11.6 33.053 10.085 0 2.282 3.653-4.11 3.653-6.39 0-.772-22.98-7.628-22.48-6.855.497-12.697 6.454-12.697 6.454s2.328-23.348 12.836-20.68z" opacity=".08"/>
      <path fill="#FFF" d="M421.363 275.4c7.203-3.597 17.97-9.304 22.858-4.652 4.89 4.653-.695 15.7 2.712 20.315 3.406 4.615-6.953 2.838-6.953 2.838s5.473-15.747 1.284-15.747c-4.19 0-19.87 14.193-25.264 3.394-5.395-10.8-1.84-2.55 5.363-6.146zM35.805 210.66c5.246-2.62 13.086-6.775 16.647-3.387 3.56 3.388-.507 11.434 1.974 14.795 2.48 3.36-5.064 2.067-5.064 2.067s3.987-11.47.936-11.47c-3.05 0-14.47 10.337-18.4 2.473-3.927-7.865-1.34-1.856 3.907-4.477zM29.904 49.15c5.837-.565 14.646-1.636 16.755 2.803 2.11 4.44 16.168 10.955 17.28 14.982 1.11 4.027-14.26-5.398-14.26-5.398s-15.06 6.424-17.91 5.33c-2.848-1.092-5.92-6.13-6.77-14.88-.85-8.75-.932-2.27 4.904-2.836zM364.152 276c0 4.205 8.862 20.158 18.912 13.91 10.05-6.248.49 7.512.49 7.512s-12.603 4.567-17.732-2.72c-5.13-7.285-.894-15.223-9.822-15.223-8.928 0 8.152-7.685 8.152-3.48zM778.822 258.963c0 4.205 7.192 17.195 17.242 10.947 10.05-6.248.49 7.512.49 7.512s-12.603 7.286-17.732 0c-5.13-7.286-20.89-23.697-29.818-23.697s29.818 1.033 29.818 5.238zM336.857 322.504s-9.47-10.17 1.133-14.848c10.604-4.677 16.735-10.7 7.8-15.258-8.933-4.556 5.716-2.59 5.716-1.294 0 1.294 7.9 13.414.21 18.255-7.693 4.84-14.86 13.144-14.86 13.144z" opacity=".08"/>
      <path fill="#FFF" fill-opacity=".08" d="M349.193 180.97s8.81-5.915 8.81-18.144c0-12.228-5.017-22.875-5.017-22.875s12.412 12.806 12.412 21.88-16.205 19.14-16.205 19.14z"/>
      <path fill="#FFF" d="M302.246 194.438s21.193-7.348 17.55-16.747c-3.642-9.397-9.966-26-15.12-26-5.155 0-.16-8.704 4.336-8.704s21.617 19.78 21.617 28.395c0 8.616-4.773 17.14-11.984 20.1-7.21 2.958-16.4 2.958-16.4 2.958zM417.616 159.93s-3.24-11.513 5.146-20.17c8.387-8.655 21.47-1.138 23.97-9.905 2.5-8.768 5.653 16.392-11.732 16.392-17.384 0-17.384 13.682-17.384 13.682zM610.91 88.882s7.89-8.987 19.718-6.668c11.827 2.32 12.648 17.385 21.362 14.707 8.715-2.678-10.668 13.67-20.137-.91-9.468-14.58-20.942-7.128-20.942-7.128zM656.366 354.05c7.34 2.817 13.364 16.76 30.893 16.76 17.528 0 16.462-22.81 16.462-22.81s9.623 31.434-10.7 31.434c-20.322 0-43.996-28.2-36.656-25.383zM1.366 344.05c7.34 2.817 13.364 16.76 30.893 16.76C49.787 360.81 48.72 338 48.72 338s9.623 31.434-10.7 31.434c-20.322 0-43.996-28.2-36.656-25.383zM498.176 156.703s-12.207 15.248-21.856 2.463c-9.648-12.785 13.06-38.248 11.395-54.21-1.665-15.964-13.203-24.548-16.6-24.548-3.396 0 31.397 4.693 29.23 23.313-2.17 18.62-13.208 39.577-13.208 43.546 0 3.968 11.04 9.437 11.04 9.437zM597.457 194.813s-21.033 5.142-25.658-12.973c-4.626-18.115 27.557-18.47 27.557-33.697 0-15.23 4.434 22.61-11.562 30.836-15.996 8.223 9.662 15.833 9.662 15.833zM667.77 222.645s16.386-10.706 6.584-22.188c-9.803-11.482-39.844-6.535-42.48-23.004-2.638-16.47 20.562-31.828 20.562-31.828s-17.56 18.604-8.78 27.51c8.78 8.906 40.448 13.203 43.3 22.924 2.855 9.72-19.185 26.585-19.185 26.585zM701.485 234.15s-10.642-10.7 4.626-15.37c15.27-4.67 15.286 17.026 21.102 17.026 5.817 0 13.6-10.745 11.967-18.586-1.634-7.84-14.824-16.948-14.824-16.948s21.205 1.027 21.205 14.806c0 13.78 1.37 31.176-12.536 28.75-13.904-2.426-16.568-22.693-21.74-19.114-5.173 3.578-9.8 9.436-9.8 9.436zM708.303 271.803s3.11-24.887 20.174-12.444 4.923 47.923 12.77 57.568c7.85 9.644 24.566 1.525 24.566 1.525s-6.97 20.15-23.5 6.065c-16.53-14.084-10.346-50.346-18.682-50.346-8.335 0-15.327-2.37-15.327-2.37zM570.915 134.735s-28.115 18.57-34.264-3.043c-6.147-21.613 33.032-18.138 42.58-28.142 9.546-10.004-25.024 32.002-29.845 24.173-4.82-7.828-8.1 8.668-2.666 8.668 5.433 0 24.195-1.655 24.195-1.655zM149.308 146.325s32.756 7.897 21.142 27.134c-11.614 19.236-35.793-11.788-49.62-11.947-13.828-.16 5.922-10.638 20.434 0 14.51 10.638 29.462 5.352 25.756 1.378-3.705-3.973-17.712-16.565-17.712-16.565zM221.206 159.253s-17.103 2.79-15.032-11.83c2.07-14.62 20.303-8.826 20.303-17.173 0-8.347-14.252-19.25-14.252-19.25s21.597 8.92 21.597 19.057c0 10.137-20.778 14.246-20.778 19.47 0 5.222 8.162 9.726 8.162 9.726zM707.206 152.253s-17.103 2.79-15.032-11.83c2.07-14.62 20.303-8.826 20.303-17.173 0-8.347-14.252-19.25-14.252-19.25s21.597 8.92 21.597 19.057c0 10.137-20.778 14.246-20.778 19.47 0 5.222 8.162 9.726 8.162 9.726zM176.938 226.843s-.29 8.16-13.87 8.16c-13.582 0-17.51-25.874-27.882-23.473-10.372 2.4-18.284 13.688-15.69 21.263 2.597 7.575 20.765 14.335 24.62 14.335 3.853 0-14.127-9.246-14.127-15.88s4.105-12.326 8.026-8.366c3.92 3.96 5.526 20.71 18.624 20.71 13.1 0 20.298-16.75 20.298-16.75zM399.27 150.15s-18.32 14.647-23.303-4.865c-4.983-19.512 18.63-30.918 18.63-30.918s-9.003 14.34-8.163 22.63c.84 8.288 12.836 13.153 12.836 13.153zM178.78 139.957s9.724-4.303 5.318-20.094c-4.406-15.79-34.12-3.08-34.12-17.152 0-14.07 17-25.597 17-23.286 0 2.31-19.55 15.447-6.048 19.367 13.502 3.92 29.472.665 32.476 13.04 3.004 12.375-14.627 28.127-14.627 28.127zM118.07 128.312s7.633.76 7.633-10.57-45.18-13.04-45.18-22.41c0-9.37 2.355-16.445 5.043-18.364C88.254 75.05 75 84.084 75 93.3c0 9.216 28.8 21.253 42.432 24.35 13.632 3.096.64 10.662.64 10.662zM58.69 121.123s11.626-8.643 3.335-21.652c-8.29-13.01-36.247 1.897-40.834-2.533-4.587-4.43 14.417 17.85 32.857 10.34 18.44-7.512 4.644 13.846 4.644 13.846zM595.246 373.5s2.81 17.03-15.066 21.32c-17.877 4.29-29.502-31.63-37.102-31.63-7.6 0 27.135-3.368 36.725 18.335s15.443-8.026 15.443-8.026zM75.392 279.465s2.81 17.03-15.066 21.32c-17.877 4.29-37.594-46.57-35.114-43.665 2.48 2.906 19.166-7.25 29.182 22.345 10.016 29.596 20.998 0 20.998 0zM54.945 167.7s-2.193 8.256-14.412 11.188c-12.22 2.932-13.166-4.68-15.24-18.69-2.07-14.012 7.238-20.23 14.083 0 6.846 20.23 15.57 7.502 15.57 7.502zM778.464 197.54s-15.15-8.27-7.525-25c7.625-16.727 59.843-.95 56.026-.786-3.818.165-6.086 19.567-35.574 9.24-29.49-10.33-12.928 16.545-12.928 16.545zM61.424 235.328c13.027-3.865 23.86-7.174 23.86-18.437 0-11.263 18.333-26.29 23.91-17.32 5.58 8.97 2.77 16.727 2.77 16.727s3.548-15.97-6.077-12.557c-9.625 3.412 5.29 22.655-9.686 30.446-14.975 7.79-47.804 5.007-34.776 1.142zM455.07 46.686s-27.226-24.473-7.953-30.684c19.274-6.21 39.78 5.393 45.58-1.51 5.8-6.902-2.508 25.885-32.338 11.426-29.83-14.46-5.29 20.768-5.29 20.768zM767.71 87.16s-17.39 22.793-28.65 1.955c-11.26-20.838 17.51-37.19 17.51-37.19s12.64 25.786-2.935 29.39c-15.574 3.603-6.3 11.968-1.682 11.968 4.617 0 15.756-6.123 15.756-6.123zM426.473 204.133c4.287-9.112 3.584-23.602 16.654-23.602s18.846-.9 22.21-5.56c3.362-4.66-3.177 13.913-15.728 14.06-12.55.146-27.424 24.214-23.137 15.103z" opacity=".08"/>
      <path fill="#D8D8D8" d="M257.337 310.29c9.715 0 36.367-4.66 36.367-17.26 0-12.597 8.165-19.03 8.165-19.03s10.13 1.814.98 24.505c-9.146 22.692-55.227 11.784-45.513 11.784z" opacity=".066"/>
    </g>
  </g>
</svg>